<?xml version="1.0" standalone="no"?>
<!DOCTYPE svg PUBLIC "-//W3C//DTD SVG 20010904//EN"
 "http://www.w3.org/TR/2001/REC-SVG-20010904/DTD/svg10.dtd">
<svg version="1.0" xmlns="http://www.w3.org/2000/svg"
 width="448.000000pt" height="448.000000pt" viewBox="0 0 448.000000 448.000000"
 preserveAspectRatio="xMidYMid meet">
<metadata>
Created by potrace 1.11, written by Peter Selinger 2001-2013
</metadata>
<g transform="translate(0.000000,448.000000) scale(0.100000,-0.100000)"
fill="#000000" stroke="none">
<path d="M1553 4294 c-19 -7 -41 -20 -49 -31 -14 -19 -32 -74 -39 -121 -2 -15
-6 -36 -8 -47 -3 -11 -8 -40 -13 -65 -4 -25 -8 -47 -9 -50 -1 -3 -5 -27 -10
-55 -5 -27 -10 -52 -10 -55 -2 -9 -17 -84 -21 -105 -2 -11 -8 -42 -14 -70 -5
-27 -11 -61 -14 -75 -22 -128 -40 -210 -45 -211 -3 -1 -188 -2 -411 -3 -388
-1 -406 -2 -440 -22 -35 -20 -53 -56 -65 -127 -3 -18 -13 -68 -21 -112 -44
-230 -44 -235 -29 -271 28 -67 42 -69 473 -69 l382 1 -6 -31 c-2 -16 -11 -66
-20 -110 -8 -44 -33 -174 -55 -290 -22 -115 -41 -219 -43 -230 -3 -11 -25
-130 -51 -265 -25 -135 -49 -252 -54 -260 -7 -12 -68 -14 -417 -15 -377 0
-412 -1 -437 -18 -38 -24 -53 -63 -77 -192 -11 -60 -22 -121 -25 -135 -32
-166 -30 -188 22 -227 l35 -27 391 0 c342 -1 392 -3 390 -16 -2 -15 -6 -38
-94 -501 -58 -307 -58 -317 3 -360 28 -20 43 -21 262 -22 250 -1 281 4 311 49
16 25 18 34 61 259 14 77 28 149 30 160 9 48 54 283 58 310 8 43 17 88 22 105
4 14 61 16 494 16 422 0 490 -2 490 -15 0 -11 -67 -365 -86 -456 -2 -11 -7
-36 -10 -55 -3 -19 -16 -85 -28 -146 -25 -128 -21 -160 25 -198 34 -29 24 -28
284 -28 263 0 243 -2 280 35 27 27 34 45 49 122 9 50 18 101 21 115 5 23 13
69 21 113 2 10 5 26 8 35 3 9 7 33 10 52 6 40 6 39 47 244 16 83 29 158 29
166 0 14 46 16 402 15 426 0 456 3 489 47 15 19 54 194 86 381 15 82 7 113
-34 144 l-36 28 -388 1 c-214 0 -391 3 -394 6 -3 3 1 36 9 74 8 38 17 87 20
109 4 22 8 47 11 55 2 8 6 26 9 40 2 14 13 75 25 135 11 61 22 121 25 135 2
14 14 75 26 135 12 61 24 121 26 135 2 14 7 36 9 50 3 14 8 39 10 55 3 17 10
50 15 75 5 25 12 56 14 70 2 14 7 37 10 53 3 15 8 37 11 50 l4 22 398 0 c270
-1 409 3 433 11 57 18 72 53 110 250 41 214 43 266 9 300 -14 13 -38 28 -54
32 -17 4 -200 8 -407 7 -332 0 -377 2 -373 15 2 8 13 65 24 125 22 121 21 115
51 270 12 61 27 144 35 185 8 41 17 86 20 100 22 103 14 146 -37 183 -26 19
-43 21 -264 22 -187 0 -242 -2 -266 -14 -35 -17 -57 -47 -64 -87 -2 -16 -16
-87 -30 -159 -14 -71 -28 -141 -30 -155 -3 -14 -11 -60 -20 -103 -8 -42 -17
-90 -20 -105 -5 -29 -42 -224 -49 -257 -4 -20 -12 -20 -492 -20 l-488 0 1 30
c1 37 6 64 45 260 11 55 22 111 24 125 3 22 27 151 57 300 6 30 10 66 9 80 -5
39 -32 78 -65 92 -42 17 -454 19 -503 2z m1290 -1499 c0 -6 -4 -26 -7 -45 -6
-38 -29 -162 -56 -295 -11 -56 -17 -87 -30 -160 -5 -27 -16 -86 -24 -130 -22
-109 -21 -106 -44 -230 -12 -60 -24 -123 -27 -140 -3 -16 -10 -52 -15 -80 -5
-27 -12 -63 -15 -80 l-7 -30 -481 1 c-265 1 -487 2 -494 3 -8 1 -9 11 -3 34 5
17 11 50 14 72 2 22 7 47 10 55 3 8 8 33 11 55 3 22 16 94 30 160 13 66 26
134 29 150 2 17 16 91 30 165 15 74 29 146 31 160 3 14 7 36 10 50 2 14 7 39
10 55 33 177 42 223 49 233 7 12 981 9 979 -3z"/>
</g>
</svg>
